<svg xmlns="http://www.w3.org/2000/svg" viewBox="0 0 32 32" width="32" height="32">
  <!-- Hexagonal Background -->
  <polygon points="16,1 28,8 28,24 16,31 4,24 4,8" fill="#e8f7ff"/>
  
  <!-- Inner Hexagonal border - simplified -->
  <polygon points="16,3 26,9 26,23 16,29 6,23 6,9" fill="none" stroke="#d0f0ff" stroke-width="0.2"/>
  
  <!-- Inner hexagonal fill -->
  <polygon points="16,4 25,10 25,22 16,28 7,22 7,10" fill="#f5faff"/>
  
  <!-- Hexagonal glow outline - simplified -->
  <polygon points="16,3.5 25.5,9.5 25.5,22.5 16,28.5 6.5,22.5 6.5,9.5" fill="none" stroke="#4ba3e3" stroke-width="0.3" stroke-opacity="0.6"/>
  
  <!-- Frost Crystal Snowflake - simplified -->
  <g fill="#0a192f">
    <!-- Main Crystal Spikes - simplified -->
    <path d="M16,4 L16,28" stroke="#0a5189" stroke-width="0.5" fill="none"/>
    <path d="M6,16 L26,16" stroke="#0a5189" stroke-width="0.5" fill="none"/>
    <path d="M8,8 L24,24" stroke="#0a5189" stroke-width="0.5" fill="none"/>
    <path d="M8,24 L24,8" stroke="#0a5189" stroke-width="0.5" fill="none"/>
    
    <!-- Small Crystal Nodes - simplified -->
    <circle cx="16" cy="16" r="1.2" fill="#0a192f"/>
    <circle cx="16" cy="10" r="0.8" fill="#132747"/>
    <circle cx="16" cy="22" r="0.8" fill="#132747"/>
    <circle cx="10" cy="16" r="0.8" fill="#132747"/>
    <circle cx="22" cy="16" r="0.8" fill="#132747"/>
    <circle cx="12" cy="12" r="0.8" fill="#132747"/>
    <circle cx="20" cy="20" r="0.8" fill="#132747"/>
    <circle cx="12" cy="20" r="0.8" fill="#132747"/>
    <circle cx="20" cy="12" r="0.8" fill="#132747"/>
  </g>
  
  <!-- Outer faint glow for icy effect - hexagonal - simplified -->
  <polygon points="16,5 24,10.5 24,21.5 16,27 8,21.5 8,10.5" fill="none" stroke="#4ba3e3" stroke-width="0.2" stroke-opacity="0.3"/>
</svg>
